<svg id="visual" viewBox="0 0 900 600" width="900" height="600" xmlns="http://www.w3.org/2000/svg" xmlns:xlink="http://www.w3.org/1999/xlink" version="1.1"><path d="M0 211L13.7 211C27.3 211 54.7 211 82 203C109.3 195 136.7 179 163.8 160C191 141 218 119 245.2 113C272.3 107 299.7 117 327 137C354.3 157 381.7 187 409 200C436.3 213 463.7 209 491 202C518.3 195 545.7 185 573 169C600.3 153 627.7 131 654.8 142C682 153 709 197 736.2 208C763.3 219 790.7 197 818 191C845.3 185 872.7 195 886.3 200L900 205L900 0L886.3 0C872.7 0 845.3 0 818 0C790.7 0 763.3 0 736.2 0C709 0 682 0 654.8 0C627.7 0 600.3 0 573 0C545.7 0 518.3 0 491 0C463.7 0 436.3 0 409 0C381.7 0 354.3 0 327 0C299.7 0 272.3 0 245.2 0C218 0 191 0 163.8 0C136.7 0 109.3 0 82 0C54.7 0 27.3 0 13.7 0L0 0Z" fill="#fef9fe"></path><path d="M0 385L13.7 369C27.3 353 54.7 321 82 310C109.3 299 136.7 309 163.8 314C191 319 218 319 245.2 325C272.3 331 299.7 343 327 347C354.3 351 381.7 347 409 344C436.3 341 463.7 339 491 340C518.3 341 545.7 345 573 350C600.3 355 627.7 361 654.8 362C682 363 709 359 736.2 350C763.3 341 790.7 327 818 335C845.3 343 872.7 373 886.3 388L900 403L900 203L886.3 198C872.7 193 845.3 183 818 189C790.7 195 763.3 217 736.2 206C709 195 682 151 654.8 140C627.7 129 600.3 151 573 167C545.7 183 518.3 193 491 200C463.7 207 436.3 211 409 198C381.7 185 354.3 155 327 135C299.7 115 272.3 105 245.2 111C218 117 191 139 163.8 158C136.7 177 109.3 193 82 201C54.7 209 27.3 209 13.7 209L0 209Z" fill="#fceffd"></path><path d="M0 463L13.7 459C27.3 455 54.7 447 82 447C109.3 447 136.7 455 163.8 446C191 437 218 411 245.2 419C272.3 427 299.7 469 327 472C354.3 475 381.7 439 409 422C436.3 405 463.7 407 491 411C518.3 415 545.7 421 573 431C600.3 441 627.7 455 654.8 465C682 475 709 481 736.2 471C763.3 461 790.7 435 818 432C845.3 429 872.7 449 886.3 459L900 469L900 401L886.3 386C872.7 371 845.3 341 818 333C790.7 325 763.3 339 736.2 348C709 357 682 361 654.8 360C627.7 359 600.3 353 573 348C545.7 343 518.3 339 491 338C463.7 337 436.3 339 409 342C381.7 345 354.3 349 327 345C299.7 341 272.3 329 245.2 323C218 317 191 317 163.8 312C136.7 307 109.3 297 82 308C54.7 319 27.3 351 13.7 367L0 383Z" fill="#f7d9fb"></path><path d="M0 511L13.7 509C27.3 507 54.7 503 82 507C109.3 511 136.7 523 163.8 523C191 523 218 511 245.2 514C272.3 517 299.7 535 327 535C354.3 535 381.7 517 409 511C436.3 505 463.7 511 491 521C518.3 531 545.7 545 573 544C600.3 543 627.7 527 654.8 522C682 517 709 523 736.2 527C763.3 531 790.7 533 818 535C845.3 537 872.7 539 886.3 540L900 541L900 467L886.3 457C872.7 447 845.3 427 818 430C790.7 433 763.3 459 736.2 469C709 479 682 473 654.8 463C627.7 453 600.3 439 573 429C545.7 419 518.3 413 491 409C463.7 405 436.3 403 409 420C381.7 437 354.3 473 327 470C299.7 467 272.3 425 245.2 417C218 409 191 435 163.8 444C136.7 453 109.3 445 82 445C54.7 445 27.3 453 13.7 457L0 461Z" fill="#fceffd"></path><path d="M0 601L13.7 601C27.3 601 54.7 601 82 601C109.3 601 136.7 601 163.8 601C191 601 218 601 245.2 601C272.3 601 299.7 601 327 601C354.3 601 381.7 601 409 601C436.3 601 463.7 601 491 601C518.3 601 545.7 601 573 601C600.3 601 627.7 601 654.8 601C682 601 709 601 736.2 601C763.3 601 790.7 601 818 601C845.3 601 872.7 601 886.3 601L900 601L900 539L886.3 538C872.7 537 845.3 535 818 533C790.7 531 763.3 529 736.2 525C709 521 682 515 654.8 520C627.7 525 600.3 541 573 542C545.7 543 518.3 529 491 519C463.7 509 436.3 503 409 509C381.7 515 354.3 533 327 533C299.7 533 272.3 515 245.2 512C218 509 191 521 163.8 521C136.7 521 109.3 509 82 505C54.7 501 27.3 505 13.7 507L0 509Z" fill="#fef9fe"></path></svg>