<svg id="visual" viewBox="0 0 900 600" width="900" height="600" xmlns="http://www.w3.org/2000/svg" xmlns:xlink="http://www.w3.org/1999/xlink" version="1.1"><path d="M0 423L21.5 413.2C43 403.3 86 383.7 128.8 374C171.7 364.3 214.3 364.7 257.2 362.3C300 360 343 355 385.8 360.3C428.7 365.7 471.3 381.3 514.2 389.3C557 397.3 600 397.7 642.8 401.3C685.7 405 728.3 412 771.2 406.2C814 400.3 857 381.7 878.5 372.3L900 363L900 601L878.5 601C857 601 814 601 771.2 601C728.3 601 685.7 601 642.8 601C600 601 557 601 514.2 601C471.3 601 428.7 601 385.8 601C343 601 300 601 257.2 601C214.3 601 171.7 601 128.8 601C86 601 43 601 21.5 601L0 601Z" fill="#f0576e"></path><path d="M0 464L21.5 466.3C43 468.7 86 473.3 128.8 461.8C171.7 450.3 214.3 422.7 257.2 410.8C300 399 343 403 385.8 417.2C428.7 431.3 471.3 455.7 514.2 461.7C557 467.7 600 455.3 642.8 441.8C685.7 428.3 728.3 413.7 771.2 418.5C814 423.3 857 447.7 878.5 459.8L900 472L900 601L878.5 601C857 601 814 601 771.2 601C728.3 601 685.7 601 642.8 601C600 601 557 601 514.2 601C471.3 601 428.7 601 385.8 601C343 601 300 601 257.2 601C214.3 601 171.7 601 128.8 601C86 601 43 601 21.5 601L0 601Z" fill="#f04488"></path><path d="M0 457L21.5 459.2C43 461.3 86 465.7 128.8 464C171.7 462.3 214.3 454.7 257.2 451.2C300 447.7 343 448.3 385.8 454C428.7 459.7 471.3 470.3 514.2 480C557 489.7 600 498.3 642.8 497.2C685.7 496 728.3 485 771.2 474.3C814 463.7 857 453.3 878.5 448.2L900 443L900 601L878.5 601C857 601 814 601 771.2 601C728.3 601 685.7 601 642.8 601C600 601 557 601 514.2 601C471.3 601 428.7 601 385.8 601C343 601 300 601 257.2 601C214.3 601 171.7 601 128.8 601C86 601 43 601 21.5 601L0 601Z" fill="#e53aa7"></path><path d="M0 490L21.5 492.8C43 495.7 86 501.3 128.8 501.3C171.7 501.3 214.3 495.7 257.2 499.7C300 503.7 343 517.3 385.8 522.7C428.7 528 471.3 525 514.2 527C557 529 600 536 642.8 529.8C685.7 523.7 728.3 504.3 771.2 501C814 497.7 857 510.3 878.5 516.7L900 523L900 601L878.5 601C857 601 814 601 771.2 601C728.3 601 685.7 601 642.8 601C600 601 557 601 514.2 601C471.3 601 428.7 601 385.8 601C343 601 300 601 257.2 601C214.3 601 171.7 601 128.8 601C86 601 43 601 21.5 601L0 601Z" fill="#ca40ca"></path><path d="M0 555L21.5 556.3C43 557.7 86 560.3 128.8 559.2C171.7 558 214.3 553 257.2 548.5C300 544 343 540 385.8 540.5C428.7 541 471.3 546 514.2 546.7C557 547.3 600 543.7 642.8 544.7C685.7 545.7 728.3 551.3 771.2 552.3C814 553.3 857 549.7 878.5 547.8L900 546L900 601L878.5 601C857 601 814 601 771.2 601C728.3 601 685.7 601 642.8 601C600 601 557 601 514.2 601C471.3 601 428.7 601 385.8 601C343 601 300 601 257.2 601C214.3 601 171.7 601 128.8 601C86 601 43 601 21.5 601L0 601Z" fill="#9852ec"></path></svg>