<svg width="187" height="37" viewBox="0 0 187 37" fill="none" xmlns="http://www.w3.org/2000/svg">
    <path opacity="0.1" fill-rule="evenodd" clip-rule="evenodd"
          d="M18.5 36C28.165 36 36 28.165 36 18.5C36 8.83502 28.165 1 18.5 1C8.83502 1 1 8.83502 1 18.5C1 28.165 8.83502 36 18.5 36Z"
          stroke="#0C111A" stroke-width="1.5"/>
    <path d="M14.4835 14.9671C15.3029 14.9671 15.9671 14.3029 15.9671 13.4835C15.9671 12.6642 15.3029 12 14.4835 12C13.6642 12 13 12.6642 13 13.4835C13 14.3029 13.6642 14.9671 14.4835 14.9671Z"
          fill="#0C111A"/>
    <path d="M15.7198 15.958H13.2473C13.1108 15.958 13 16.0688 13 16.2053V23.623C13 23.7595 13.1108 23.8703 13.2473 23.8703H15.7198C15.8563 23.8703 15.9671 23.7595 15.9671 23.623V16.2053C15.9671 16.0688 15.8563 15.958 15.7198 15.958Z"
          fill="#0C111A"/>
    <path d="M23.088 15.5466C22.0313 15.1847 20.7094 15.5026 19.9167 16.0728C19.8895 15.9665 19.7926 15.8874 19.6774 15.8874H17.2048C17.0683 15.8874 16.9575 15.9981 16.9575 16.1346V23.5524C16.9575 23.6889 17.0683 23.7996 17.2048 23.7996H19.6774C19.8138 23.7996 19.9246 23.6889 19.9246 23.5524V18.2215C20.3242 17.8773 20.839 17.7675 21.2603 17.9465C21.6688 18.1191 21.9027 18.5404 21.9027 19.1017V23.5524C21.9027 23.6889 22.0135 23.7996 22.1499 23.7996H24.6225C24.759 23.7996 24.8698 23.6889 24.8698 23.5524V18.6037C24.8416 16.5718 23.8857 15.8196 23.088 15.5466Z"
          fill="#0C111A"/>
    <path opacity="0.1" fill-rule="evenodd" clip-rule="evenodd"
          d="M68.5 36C78.165 36 86 28.165 86 18.5C86 8.83502 78.165 1 68.5 1C58.835 1 51 8.83502 51 18.5C51 28.165 58.835 36 68.5 36Z"
          stroke="#0C111A" stroke-width="1.5"/>
    <path d="M70.0932 14.0205H71.7016C71.8495 14.0205 71.9696 13.9074 71.9696 13.7679V12.2524C71.9696 12.1129 71.8495 11.9998 71.7016 11.9998H70.0932C68.4677 11.9998 67.1445 13.2461 67.1445 14.7783V16.5465H65.2681C65.1201 16.5465 65 16.6597 65 16.7991V18.3147C65 18.4541 65.1201 18.5673 65.2681 18.5673H67.1445V23.8719C67.1445 24.0113 67.2646 24.1245 67.4126 24.1245H69.0209C69.1689 24.1245 69.289 24.0113 69.289 23.8719V18.5673H71.1655C71.2807 18.5673 71.3831 18.4976 71.4201 18.3945L71.9562 16.8789C71.9836 16.8021 71.9696 16.7173 71.9192 16.6511C71.8683 16.5854 71.7879 16.5465 71.7016 16.5465H69.289V14.7783C69.289 14.3605 69.6498 14.0205 70.0932 14.0205Z"
          fill="#0C111A"/>
    <path opacity="0.1" fill-rule="evenodd" clip-rule="evenodd"
          d="M118.5 36C128.165 36 136 28.165 136 18.5C136 8.83502 128.165 1 118.5 1C108.835 1 101 8.83502 101 18.5C101 28.165 108.835 36 118.5 36Z"
          stroke="#0C111A" stroke-width="1.5"/>
    <path d="M124.22 15.2647C124.139 15.1729 124.008 15.1498 123.901 15.2064C123.834 15.2416 123.708 15.2878 123.559 15.3334C123.747 15.0762 123.899 14.7882 123.965 14.5293C123.994 14.4177 123.952 14.3001 123.86 14.2336C123.768 14.1677 123.646 14.1677 123.554 14.2336C123.409 14.3375 122.71 14.6497 122.268 14.7508C121.27 13.8511 120.107 13.7577 118.899 14.4831C117.917 15.0729 117.703 16.2721 117.745 17.0031C115.497 16.7805 114.1 15.5593 113.313 14.5485C113.258 14.4776 113.169 14.4403 113.086 14.4458C112.999 14.4524 112.919 14.5024 112.875 14.5799C112.503 15.2257 112.4 15.9396 112.577 16.6447C112.675 17.0295 112.845 17.3686 113.042 17.6434C112.947 17.5956 112.856 17.5357 112.77 17.4642C112.691 17.3972 112.58 17.3845 112.487 17.429C112.394 17.4747 112.334 17.5714 112.334 17.6775C112.334 18.8882 113.071 19.6962 113.758 20.1183C113.647 20.1045 113.531 20.0792 113.414 20.0424C113.314 20.0111 113.205 20.0424 113.135 20.1238C113.066 20.2046 113.049 20.32 113.093 20.4184C113.479 21.2972 114.211 21.9017 115.117 22.121C114.326 22.5986 113.267 22.8328 112.298 22.7179C112.172 22.6998 112.053 22.7817 112.013 22.9059C111.974 23.0301 112.025 23.1664 112.136 23.2301C113.607 24.0793 114.936 24.3827 116.085 24.3827C117.757 24.3827 119.047 23.7407 119.833 23.2038C121.95 21.7583 123.27 19.163 123.086 16.841C123.426 16.5832 123.933 16.1072 124.248 15.5955C124.313 15.4922 124.301 15.3559 124.22 15.2647Z"
          fill="#0C111A"/>
    <path opacity="0.1" fill-rule="evenodd" clip-rule="evenodd"
          d="M168.5 36C178.165 36 186 28.165 186 18.5C186 8.83502 178.165 1 168.5 1C158.835 1 151 8.83502 151 18.5C151 28.165 158.835 36 168.5 36Z"
          stroke="#0C111A" stroke-width="1.5"/>
    <path d="M173.973 15.5182C173.982 15.8455 173.989 16.1364 173.993 16.3909C173.998 16.6455 174 17.1818 174 18C174 18.8182 173.998 19.3545 173.993 19.6091C173.989 19.8636 173.982 20.15 173.973 20.4682C173.955 20.7955 173.92 21.0727 173.87 21.3C173.82 21.5273 173.759 21.7364 173.686 21.9273C173.614 22.1273 173.523 22.3136 173.414 22.4864C173.305 22.6591 173.164 22.8273 172.991 22.9909C172.827 23.1636 172.659 23.3045 172.486 23.4136C172.314 23.5227 172.127 23.6136 171.927 23.6864C171.736 23.7591 171.527 23.8205 171.3 23.8705C171.073 23.9205 170.8 23.9545 170.482 23.9727C170.155 23.9818 169.864 23.9886 169.609 23.9932C169.355 23.9977 168.818 24 168 24C167.182 24 166.645 23.9977 166.391 23.9932C166.136 23.9886 165.85 23.9818 165.532 23.9727C165.205 23.9545 164.927 23.9205 164.7 23.8705C164.473 23.8205 164.264 23.7591 164.073 23.6864C163.873 23.6136 163.686 23.5227 163.514 23.4136C163.341 23.3045 163.173 23.1636 163.009 22.9909C162.836 22.8273 162.695 22.6591 162.586 22.4864C162.477 22.3136 162.386 22.1273 162.314 21.9273C162.241 21.7364 162.18 21.5273 162.13 21.3C162.08 21.0727 162.045 20.8 162.027 20.4818C162.018 20.1545 162.011 19.8636 162.007 19.6091C162.002 19.3545 162 18.8182 162 18C162 17.1818 162.002 16.6455 162.007 16.3909C162.011 16.1364 162.018 15.85 162.027 15.5318C162.045 15.2045 162.08 14.9273 162.13 14.7C162.18 14.4727 162.241 14.2636 162.314 14.0727C162.386 13.8727 162.477 13.6864 162.586 13.5136C162.695 13.3409 162.836 13.1727 163.009 13.0091C163.173 12.8364 163.341 12.6955 163.514 12.5864C163.686 12.4773 163.873 12.3864 164.073 12.3136C164.264 12.2409 164.473 12.1795 164.7 12.1295C164.927 12.0795 165.2 12.0455 165.518 12.0273C165.845 12.0182 166.136 12.0114 166.391 12.0068C166.645 12.0023 167.182 12 168 12C168.818 12 169.355 12.0023 169.609 12.0068C169.864 12.0114 170.15 12.0182 170.468 12.0273C170.795 12.0455 171.073 12.0795 171.3 12.1295C171.527 12.1795 171.736 12.2409 171.927 12.3136C172.127 12.3864 172.314 12.4773 172.486 12.5864C172.659 12.6955 172.827 12.8364 172.991 13.0091C173.164 13.1727 173.305 13.3409 173.414 13.5136C173.523 13.6864 173.614 13.8727 173.686 14.0727C173.759 14.2636 173.82 14.4727 173.87 14.7C173.92 14.9273 173.955 15.2 173.973 15.5182ZM172.882 20.4273C172.9 20.1091 172.911 19.825 172.916 19.575C172.92 19.325 172.923 18.8 172.923 18C172.923 17.2 172.92 16.675 172.916 16.425C172.911 16.175 172.9 15.8909 172.882 15.5727C172.873 15.2818 172.848 15.05 172.807 14.8773C172.766 14.7045 172.723 14.5636 172.677 14.4545C172.623 14.3182 172.561 14.1955 172.493 14.0864C172.425 13.9773 172.336 13.8727 172.227 13.7727C172.127 13.6636 172.023 13.575 171.914 13.5068C171.805 13.4386 171.682 13.3773 171.545 13.3227C171.436 13.2773 171.295 13.2341 171.123 13.1932C170.95 13.1523 170.718 13.1273 170.427 13.1182C170.109 13.1 169.825 13.0886 169.575 13.0841C169.325 13.0795 168.8 13.0773 168 13.0773C167.2 13.0773 166.675 13.0795 166.425 13.0841C166.175 13.0886 165.891 13.1 165.573 13.1182C165.282 13.1273 165.05 13.1523 164.877 13.1932C164.705 13.2341 164.564 13.2773 164.455 13.3227C164.318 13.3773 164.195 13.4386 164.086 13.5068C163.977 13.575 163.873 13.6636 163.773 13.7727C163.664 13.8727 163.575 13.9773 163.507 14.0864C163.439 14.1955 163.377 14.3182 163.323 14.4545C163.277 14.5636 163.234 14.7045 163.193 14.8773C163.152 15.05 163.127 15.2818 163.118 15.5727C163.1 15.8909 163.089 16.175 163.084 16.425C163.08 16.675 163.077 17.2 163.077 18C163.077 18.8 163.08 19.325 163.084 19.575C163.089 19.825 163.1 20.1091 163.118 20.4273C163.127 20.7182 163.152 20.95 163.193 21.1227C163.234 21.2955 163.277 21.4364 163.323 21.5455C163.377 21.6818 163.439 21.8045 163.507 21.9136C163.575 22.0227 163.664 22.1273 163.773 22.2273C163.873 22.3364 163.977 22.425 164.086 22.4932C164.195 22.5614 164.318 22.6227 164.455 22.6773C164.564 22.7227 164.705 22.7659 164.877 22.8068C165.05 22.8477 165.282 22.8727 165.573 22.8818C165.891 22.9 166.175 22.9114 166.425 22.9159C166.675 22.9205 167.2 22.9227 168 22.9227C168.8 22.9227 169.325 22.9205 169.575 22.9159C169.825 22.9114 170.109 22.9 170.427 22.8818C170.718 22.8727 170.95 22.8477 171.123 22.8068C171.295 22.7659 171.436 22.7227 171.545 22.6773C171.682 22.6227 171.805 22.5614 171.914 22.4932C172.023 22.425 172.127 22.3364 172.227 22.2273C172.336 22.1273 172.425 22.0227 172.493 21.9136C172.561 21.8045 172.623 21.6818 172.677 21.5455C172.723 21.4364 172.766 21.2955 172.807 21.1227C172.848 20.95 172.873 20.7182 172.882 20.4273ZM168 14.9182C168.427 14.9182 168.827 15 169.2 15.1636C169.573 15.3182 169.9 15.5364 170.182 15.8182C170.464 16.1 170.682 16.4273 170.836 16.8C171 17.1727 171.082 17.5727 171.082 18C171.082 18.4273 171 18.8273 170.836 19.2C170.682 19.5727 170.464 19.9 170.182 20.1818C169.9 20.4636 169.573 20.6818 169.2 20.8364C168.827 21 168.427 21.0818 168 21.0818C167.573 21.0818 167.173 21 166.8 20.8364C166.427 20.6818 166.1 20.4636 165.818 20.1818C165.536 19.9 165.318 19.5727 165.164 19.2C165 18.8273 164.918 18.4273 164.918 18C164.918 17.5727 165 17.1727 165.164 16.8C165.318 16.4273 165.536 16.1 165.818 15.8182C166.1 15.5364 166.427 15.3182 166.8 15.1636C167.173 15 167.573 14.9182 168 14.9182ZM168 20.0045C168.555 20.0045 169.027 19.8091 169.418 19.4182C169.809 19.0273 170.005 18.5545 170.005 18C170.005 17.4455 169.809 16.9727 169.418 16.5818C169.027 16.1909 168.555 15.9955 168 15.9955C167.445 15.9955 166.973 16.1909 166.582 16.5818C166.191 16.9727 165.995 17.4455 165.995 18C165.995 18.5545 166.191 19.0273 166.582 19.4182C166.973 19.8091 167.445 20.0045 168 20.0045ZM171.9 14.6318C171.945 14.8227 171.916 15.0023 171.811 15.1705C171.707 15.3386 171.559 15.4455 171.368 15.4909C171.177 15.5364 170.998 15.5068 170.83 15.4023C170.661 15.2977 170.555 15.15 170.509 14.9591C170.464 14.7682 170.493 14.5886 170.598 14.4205C170.702 14.2523 170.85 14.1455 171.041 14.1C171.232 14.0455 171.411 14.0727 171.58 14.1818C171.748 14.2909 171.855 14.4409 171.9 14.6318Z"
          fill="#0C111A"/>
</svg>
